<?xml version="1.0" encoding="utf-8"?>
<!-- Generator: Adobe Illustrator 21.1.0, SVG Export Plug-In . SVG Version: 6.00 Build 0)  -->
<svg version="1.1" id="Layer_1" xmlns="http://www.w3.org/2000/svg" xmlns:xlink="http://www.w3.org/1999/xlink" x="0px" y="0px"
	 viewBox="0 0 32 26" style="enable-background:new 0 0 32 26;" xml:space="preserve">
<style type="text/css">
	.st0{fill:#888888;}
</style>
<path class="st0" d="M16,10c-1.7,0-3,1.3-3,3s1.3,3,3,3s3-1.3,3-3S17.7,10,16,10z"/>
<path class="st0" d="M26,10c-1.7,0-3,1.3-3,3s1.3,3,3,3s3-1.3,3-3S27.7,10,26,10z"/>
<path class="st0" d="M6,10c-1.7,0-3,1.3-3,3s1.3,3,3,3s3-1.3,3-3S7.7,10,6,10z"/>
</svg>
