<?xml version="1.0" encoding="utf-8"?>
<!-- Generator: Adobe Illustrator 21.1.0, SVG Export Plug-In . SVG Version: 6.00 Build 0)  -->
<svg version="1.1" id="Layer_1" xmlns="http://www.w3.org/2000/svg" xmlns:xlink="http://www.w3.org/1999/xlink" x="0px" y="0px"
	 viewBox="0 0 128 128" style="enable-background:new 0 0 128 128;" xml:space="preserve">
<style type="text/css">
	.st0{fill:#BBBBBB;}
</style>
<path class="st0" d="M117.3,64.1c0-0.1,0-0.2,0-0.3c0-0.1,0-0.2-0.1-0.3c0-0.1-0.1-0.2-0.1-0.3c0-0.1-0.1-0.2-0.1-0.3
	c0,0,0-0.1-0.1-0.1l-16.4-29.1c-0.5-0.9-1.5-1.5-2.6-1.5H30.8c-1.1,0-2,0.6-2.6,1.5L11.1,62.8c0,0.1,0,0.1-0.1,0.2
	c-0.1,0.1-0.1,0.2-0.1,0.3c0,0.1-0.1,0.2-0.1,0.3s0,0.2-0.1,0.3c0,0.1,0,0.2,0,0.3c0,0.1,0,0.1,0,0.2v28.5c0,1.7,1.3,3,3,3h100.6
	c1.7,0,3-1.3,3-3V64.3C117.3,64.2,117.3,64.2,117.3,64.1z M32.5,38.2h63.7l13,23.1H85.3c-1.7,0-3,1.3-3,3v6.3c0,0.1-0.1,0.2-0.2,0.2
	H45.8c-0.1,0-0.2-0.1-0.2-0.2v-6.3c0-1.7-1.3-3-3-3H18.9L32.5,38.2z"/>
</svg>
