<?xml version="1.0" encoding="utf-8"?>
<!-- Generator: Adobe Illustrator 21.1.0, SVG Export Plug-In . SVG Version: 6.00 Build 0)  -->
<svg version="1.1" id="Layer_1" xmlns="http://www.w3.org/2000/svg" xmlns:xlink="http://www.w3.org/1999/xlink" x="0px" y="0px"
	 viewBox="0 0 32 32" style="enable-background:new 0 0 32 32;" xml:space="preserve">
<style type="text/css">
	.st0{fill:#30729C;}
	.st1{fill:#FFFFFF;}
</style>
<circle class="st0" cx="16" cy="16" r="15.4"/>
<path class="st1" d="M19,16.8l2.1-1.1c0.3,0.2,0.6,0.2,0.9,0.2v0l0,0h0v0c0.3,0,0.6-0.1,0.9-0.2l1.9,1c0.1,0.1,0.2,0.2,0.2,0.4v0.5
	c0,0.2-0.2,0.4-0.4,0.4h-3.3L19,16.8L19,16.8L19,16.8z M10,12L10,12L10,12L10,12L10,12c-0.4,0-0.8,0.2-1.1,0.5
	c-0.3,0.3-0.5,0.8-0.5,1.3h0v0l0,0h0c0,0.5,0.2,0.9,0.5,1.3c0.3,0.3,0.6,0.5,1.1,0.5l0,0h0h0h0h0l0,0h0h0h0h0h0h0l0,0h0h0h0h0h0h0h0
	h0h0h0h0h0h0h0h0h0v0l0,0h0v0h0h0h0h0h0h0h0h0h0h0h0h0h0h0h0h0l0,0h0h0h0h0h0h0l0,0h0h0h0h0l0,0c0.4,0,0.8-0.2,1-0.5
	c0.3-0.3,0.5-0.8,0.5-1.3h0l0,0v0h0c0-0.5-0.2-0.9-0.5-1.3h0C10.8,12.2,10.4,12,10,12L10,12z M22,12L22,12L22,12L22,12L22,12
	c-0.4,0-0.8,0.2-1.1,0.5c-0.3,0.3-0.5,0.8-0.5,1.3h0v0l0,0h0c0,0.5,0.2,0.9,0.5,1.3c0.3,0.3,0.6,0.5,1.1,0.5l0,0h0h0h0h0l0,0h0h0h0
	h0h0h0l0,0h0h0h0h0h0h0h0h0h0h0h0h0h0h0h0h0v0l0,0h0v0h0h0h0h0h0h0h0h0h0h0h0h0h0h0h0h0l0,0h0h0h0h0h0h0l0,0h0h0h0h0l0,0
	c0.4,0,0.8-0.2,1-0.5c0.3-0.3,0.5-0.8,0.5-1.3h0l0,0v0h0c0-0.5-0.2-0.9-0.5-1.3h0C22.8,12.2,22.4,12,22,12L22,12z M16,9.5L16,9.5
	L16,9.5L16,9.5L16,9.5c-0.9,0-1.8,0.4-2.4,1.1c-0.6,0.7-1,1.7-1,2.7h0v0v0h0c0,1.1,0.4,2,1,2.7c0.6,0.7,1.4,1.1,2.4,1.1v0h0h0v0
	c0.9,0,1.8-0.4,2.4-1.1c0.6-0.7,1-1.7,1-2.7h0v0v0h0c0-1.1-0.4-2-1-2.7l0,0C17.8,9.9,16.9,9.5,16,9.5L16,9.5z M10.1,19.5
	c-0.4,0.2-0.6,0.6-0.6,1v0.9c0,0.6,0.5,1.1,1.1,1.1h10.8c0.6,0,1.1-0.5,1.1-1.1v-0.9c0-0.4-0.2-0.8-0.6-1l-4-2.1
	c-1.2,0.7-2.7,0.7-3.9,0L10.1,19.5L10.1,19.5z M7.3,16.7l1.9-1c0.3,0.2,0.6,0.2,0.9,0.2v0l0,0h0v0c0.3,0,0.6-0.1,0.9-0.2l2.1,1.1v0
	L10.8,18H7.5C7.2,18,7,17.8,7,17.6v-0.5C7,16.9,7.1,16.7,7.3,16.7z"/>
</svg>
