<?xml version="1.0" ?><!DOCTYPE svg  PUBLIC '-//W3C//DTD SVG 1.1//EN'  'http://www.w3.org/Graphics/SVG/1.1/DTD/svg11.dtd'><svg enable-background="new 0 0 32 32" height="32px" id="Layer_1" version="1.1" viewBox="0 0 32 32" width="32px" xml:space="preserve" xmlns="http://www.w3.org/2000/svg" xmlns:xlink="http://www.w3.org/1999/xlink"><path d="M7,2H6C4.9,2,4,2.9,4,4v4.288l4.893-4.903C8.63,2.585,7.884,2,7,2z M30.875,14L18,1.094C17.313,0.438,16.891,0,16,0  s-1.313,0.438-2,1.094L1.125,14C0.406,14.719,0,15.188,0,16c0,1.172,0.969,2,2,2h2v12c0,1.1,0.9,2,2,2h6V22h8v10h6c1.1,0,2-0.9,2-2  V18h2c1.031,0,2-0.828,2-2C32,15.188,31.594,14.719,30.875,14z"/></svg>