<?xml version="1.0" encoding="utf-8"?>
<!-- Generator: Adobe Illustrator 21.1.0, SVG Export Plug-In . SVG Version: 6.00 Build 0)  -->
<svg version="1.1" id="Layer_1" xmlns="http://www.w3.org/2000/svg" xmlns:xlink="http://www.w3.org/1999/xlink" x="0px" y="0px"
	 viewBox="0 0 44.7 42.8" style="enable-background:new 0 0 44.7 42.8;" xml:space="preserve">
<style type="text/css">
	.st0{fill:#09815A;}
	.st1{fill:#FFFFFF;}
</style>
<circle class="st0" cx="22.3" cy="21.4" r="19.2"/>
<path class="st1" d="M30.1,13.1H14.5c-1.6,0-3,1.4-3,3v10.7c0,1.6,1.4,3,3,3h15.6c1.6,0,3-1.4,3-3V16C33,14.3,31.7,13.1,30.1,13.1z
	 M31,26.7c0,0.5-0.4,1-1,1H14.5c-0.5,0-1-0.4-1-1V16c0-0.5,0.4-1,1-1h15.6c0.5,0,1,0.4,1,1L31,26.7L31,26.7z"/>
<polygon class="st1" points="13.1,23.3 16.9,19.8 21.3,24.2 24.7,21.9 31.5,26.7 31,28.2 13.3,28.4 "/>
<circle class="st1" cx="27.2" cy="17.9" r="1.4"/>
</svg>
