<?xml version="1.0" encoding="utf-8"?>
<!-- Generator: Adobe Illustrator 21.1.0, SVG Export Plug-In . SVG Version: 6.00 Build 0)  -->
<svg version="1.1" id="Layer_1" xmlns="http://www.w3.org/2000/svg" xmlns:xlink="http://www.w3.org/1999/xlink" x="0px" y="0px"
	 viewBox="0 0 44 34" style="enable-background:new 0 0 44 34;" xml:space="preserve">
<path d="M38,0H6C2.7,0,0,2.7,0,6v22c0,3.3,2.7,6,6,6h32c3.3,0,6-2.7,6-6V6C44,2.7,41.3,0,38,0z M40,28c0,1.1-0.9,2-2,2H6
	c-1.1,0-2-0.9-2-2V6c0-1.1,0.9-2,2-2h32c1.1,0,2,0.9,2,2V28z"/>
<polygon points="3,21 11,14 20,23 27,18 41,28 40,31 5,31 "/>
<circle cx="32" cy="10" r="3"/>
</svg>
