<?xml version="1.0" ?><!DOCTYPE svg  PUBLIC '-//W3C//DTD SVG 1.1//EN'  'http://www.w3.org/Graphics/SVG/1.1/DTD/svg11.dtd'>
<svg class="nav-icons" id="info-icons" version="1.1" viewBox="0 0 512 512" width="512px" xml:space="preserve" xmlns="http://www.w3.org/2000/svg" xmlns:xlink="http://www.w3.org/1999/xlink">
	<path clip-rule="evenodd" d="M256,1C115.167,1,1,115.167,1,256c0,140.833,114.168,255,255,255  s255-114.166,255-255C511,115.167,396.833,1,256,1z M313.338,410.831c-4.541,3.77-9.664,7.136-15.375,10.093  c-5.71,2.961-11.971,5.324-18.78,7.099c-6.809,1.775-23.495,2.663-31.694,2.663c-17.28,0-30.531-4.105-39.756-12.313  c-9.225-8.208-18.428-19.634-18.428-34.275c0-5.948,0.55-13.083,1.531-21.135c0.437-0.01,18.699-105.471,18.699-105.471  c0.439-1.92,0.84-3.917,1.208-5.99c0.363-2.069,0.693-4.028,0.988-5.879c0.292-1.847,0.512-3.438,0.659-4.77  c0.144-1.33,0.22-2.29,0.22-2.883c0-4.139-0.439-7.467-1.318-9.984c-0.879-2.513-2.272-4.437-4.173-5.767  c-1.905-1.332-4.359-2.219-7.358-2.663c-3.003-0.443-6.627-0.666-10.873-0.666c0,0-15.211-2.558-15.211-12.818  c0-13.417,20.491-11.362,19.4-11.362c18.4,0,67.203,0,90.524,0c26.031,0,12.03,45.486,15.769,27.777  c-9.034,42.796-20.736,111.94-20.736,111.94c-1.757,8.284-3.223,11.995-4.393,19.167c-1.174,7.176-1.757,13.942-1.757,20.3  c0,6.655,1.352,11.757,4.063,15.307c2.708,3.55,6.552,5.324,11.532,5.324c4.684,0,9.005-0.887,12.959-2.662  c6.931-3.111,20.665-15.148,26.156-7.339C334.307,394.64,319.965,405.322,313.338,410.831z M191.063,360.804  c-0.1,0.774-0.134,1.404-0.226,2.159C190.803,362.963,190.864,362.337,191.063,360.804z M262.932,174.037  c-25.351,0-45.902-20.756-45.902-46.361c0-25.604,20.551-46.361,45.902-46.361c25.35,0,45.901,20.757,45.901,46.361  C308.833,153.281,288.282,174.037,262.932,174.037z" fill-rule="evenodd"/>
</svg>