<?xml version="1.0" ?><svg height="24px" id="Layer_1" style="enable-background:new 0 0 24 24;" version="1.1" viewBox="0 0 24 24" width="24px" xml:space="preserve" xmlns="http://www.w3.org/2000/svg" xmlns:xlink="http://www.w3.org/1999/xlink"><g><polygon points="11,23 3.2,19.7999992 3,18 3,3 11,6  "/></g><path d="M15,16v2H4V4h11v2h2V4c0-1.1046143-0.8954468-2-2-2H4C2.8954468,2,2,2.8953857,2,4v14c0,1.1045532,0.8954468,2,2,2h11  c1.1045532,0,2-0.8954468,2-2v-2H15z"/><polygon points="18.9999924,14.9999924 19.0000076,6.9999924 23,10.9999847 "/><rect height="2" width="8" x="13" y="10"/></svg>