<?xml version="1.0" encoding="utf-8"?>
<!-- Generator: Adobe Illustrator 21.1.0, SVG Export Plug-In . SVG Version: 6.00 Build 0)  -->
<svg version="1.1" xmlns="http://www.w3.org/2000/svg" xmlns:xlink="http://www.w3.org/1999/xlink" x="0px" y="0px"
	 viewBox="0 0 800 600"  xml:space="preserve">

	<rect x="100" class="st0" width="600" height="600"/>
	<path id="_152771664" class="st1" d="M173.1,41.1h82.5c18.1,0,32.8,14.7,32.8,32.8v82.5c0,18.1-14.7,32.8-32.8,32.8h-82.5
		c-18.1,0-32.8-14.7-32.8-32.8V73.9C140.4,55.8,155,41.1,173.1,41.1z"/>
	<path id="_152771544" class="st1" d="M545.2,41.1h82.5c18.1,0,32.8,14.7,32.8,32.8v82.5c0,18.1-14.7,32.8-32.8,32.8h-82.5
		c-18.1,0-32.8-14.7-32.8-32.8V73.9C512.4,55.8,527.1,41.1,545.2,41.1z"/>
	<path id="_152772408" class="st1" d="M359.2,41.1h82.5c18.1,0,32.8,14.7,32.8,32.8v82.5c0,18.1-14.7,32.8-32.8,32.8h-82.5
		c-18.1,0-32.8-14.7-32.8-32.8V73.9C326.4,55.8,341.1,41.1,359.2,41.1z"/>

	<path id="_152770608" class="st1" d="M173.1,227.1h82.5c18.1,0,32.8,14.7,32.8,32.8v82.5c0,18.1-14.7,32.8-32.8,32.8h-82.5
		c-18.1,0-32.8-14.7-32.8-32.8v-82.5C140.4,241.8,155,227.1,173.1,227.1z"/>
	<path id="_152771616" class="st1" d="M545.2,227.1h82.5c18.1,0,32.8,14.7,32.8,32.8v82.5c0,18.1-14.7,32.8-32.8,32.8h-82.5
		c-18.1,0-32.8-14.7-32.8-32.8v-82.5C512.4,241.8,527.1,227.1,545.2,227.1z"/>
	<path id="_152772264" class="st1" d="M359.2,227.1h82.5c18.1,0,32.8,14.7,32.8,32.8v82.5c0,18.1-14.7,32.8-32.8,32.8h-82.5
		c-18.1,0-32.8-14.7-32.8-32.8v-82.5C326.4,241.8,341.1,227.1,359.2,227.1z"/>
	<path id="_45153608" class="st1" d="M172.6,412.7h82.5c18.1,0,32.8,14.7,32.8,32.8V528c0,18.1-14.7,32.8-32.8,32.8h-82.5
		c-18.1,0-32.8-14.7-32.8-32.8v-82.5C139.9,427.3,154.5,412.7,172.6,412.7z"/>
	<path id="_152770872" class="st1" d="M544.7,412.7h82.5c18.1,0,32.8,14.7,32.8,32.8V528c0,18.1-14.7,32.8-32.8,32.8h-82.5
		c-18.1,0-32.8-14.7-32.8-32.8v-82.5C511.9,427.3,526.6,412.7,544.7,412.7z"/>
	<path id="_152770464" class="st1" d="M358.7,412.7h82.5c18.1,0,32.8,14.7,32.8,32.8V528c0,18.1-14.7,32.8-32.8,32.8h-82.5
		c-18.1,0-32.8-14.7-32.8-32.8v-82.5C325.9,427.3,340.6,412.7,358.7,412.7z"/>

</svg>
