<?xml version="1.0" ?><!DOCTYPE svg  PUBLIC '-//W3C//DTD SVG 1.1//EN'  'http://www.w3.org/Graphics/SVG/1.1/DTD/svg11.dtd'><svg enable-background="new 0 0 32 32" height="32px" id="Layer_1" version="1.1" viewBox="0 0 32 32" width="32px" xml:space="preserve" xmlns="http://www.w3.org/2000/svg" xmlns:xlink="http://www.w3.org/1999/xlink"><path d="M29,5H3C1.9,5,1,5.9,1,7v18c0,1.1,0.9,2,2,2h26c1.1,0,2-0.9,2-2V7C31,5.9,30.1,5,29,5z M27.293,24.707L19.5,16.914  l-1.01,0.9C17.783,18.451,17.174,19,16,19s-1.783-0.549-2.49-1.186l-1.01-0.9l-7.793,7.793l-1.414-1.414l7.711-7.711L3.335,8.747  l1.33-1.493l10.184,9.075C15.491,16.907,15.622,17,16,17s0.509-0.093,1.151-0.672l10.184-9.075l1.33,1.493l-7.669,6.835l7.711,7.711  L27.293,24.707z"/></svg>