<?xml version="1.0" encoding="utf-8"?>
<!-- Generator: Adobe Illustrator 21.1.0, SVG Export Plug-In . SVG Version: 6.00 Build 0)  -->
<svg version="1.1" id="notification-icon" xmlns="http://www.w3.org/2000/svg" xmlns:xlink="http://www.w3.org/1999/xlink" x="0px"
	 y="0px" viewBox="0 0 60 60" style="enable-background:new 0 0 60 60;" xml:space="preserve">
<path d="M22.4,47.7c0,4.2,3.4,7.6,7.6,7.6s7.6-3.4,7.6-7.6v-0.1L22.4,47.7C22.4,47.6,22.4,47.6,22.4,47.7z"/>
<path d="M47.7,31.2C47.6,20.7,42.3,11.8,35,9c-0.4-2.4-2.5-4.2-5-4.2S25.4,6.6,25,9c-7.3,2.8-12.6,11.7-12.7,22.2
	c-3.1,3.9-5,8.8-5,14.1h7.1h1.4h28.5h3.4h5C52.7,40,50.8,35.1,47.7,31.2z"/>
</svg>
