<?xml version="1.0" encoding="utf-8"?>
<!-- Generator: Adobe Illustrator 21.1.0, SVG Export Plug-In . SVG Version: 6.00 Build 0)  -->
<svg version="1.1" xmlns="http://www.w3.org/2000/svg" xmlns:xlink="http://www.w3.org/1999/xlink" x="0px" y="0px"
	 viewBox="0 0 600 600" xml:space="preserve">
	<rect idth="600" height="600"/>
	<path d="M74,44h230c8.8,0,16,7.2,16,16v28c0,8.8-7.2,16-16,16H104v392h392V296.3c0-8.8,7.2-16,16-16h28
		c8.8,0,16,7.2,16,16V526c0,16.6-13.4,30-30,30H74c-16.6,0-30-13.4-30-30V74C44,57.4,57.4,44,74,44L74,44z"/>
		<path d="M501.6,153.3L257.3,397.5l-56.6-56.6L445,96.7L501.6,153.3L501.6,153.3z M242,412.9l-0.2,0.2
			l0,0l0,0l-38.6,10.4l-23.8,6.4c-3.2,0.8-6.3,0-8.6-2.3c-2.3-2.3-3.1-5.4-2.3-8.6l6.4-23.8l10.4-38.6l0,0l0,0l0.2-0.2L242,412.9
			L242,412.9z"/>
		<path d="M513.4,46.1l38.8,38.8c4.6,4.6,4.6,12.1,0,16.6l-35.8,35.8L461,81.9l35.8-35.8
			C501.4,41.5,508.9,41.5,513.4,46.1z"/>
</svg>
