<?xml version="1.0" encoding="utf-8"?>
<!-- Generator: Adobe Illustrator 21.1.0, SVG Export Plug-In . SVG Version: 6.00 Build 0)  -->
<svg version="1.1"
	 id="svg6485" xmlns:cc="http://creativecommons.org/ns#" xmlns:dc="http://purl.org/dc/elements/1.1/" xmlns:inkscape="http://www.inkscape.org/namespaces/inkscape" xmlns:rdf="http://www.w3.org/1999/02/22-rdf-syntax-ns#" xmlns:sodipodi="http://sodipodi.sourceforge.net/DTD/sodipodi-0.dtd" xmlns:svg="http://www.w3.org/2000/svg"
	 xmlns="http://www.w3.org/2000/svg" xmlns:xlink="http://www.w3.org/1999/xlink" x="0px" y="0px" viewBox="0 0 35.8 35.8"
	 style="enable-background:new 0 0 35.8 35.8;" xml:space="preserve">
<style type="text/css">
	.st0{fill:#3A6B86;}
	.st1{fill:#FFFFFF;}
</style>
<g id="layer1" transform="translate(0,-1020.3622)">
	<g id="text5755">
	</g>
	<g id="text5759">
	</g>
	<g id="g6647" transform="translate(14.554567,2.8613639)">
	</g>
	<g id="g6289">
		<path id="path4138-27" class="st0" d="M17.9,1021.6c-8.8,0-16,7.2-16,16s7.2,16,16,16s16-7.2,16-16S26.8,1021.6,17.9,1021.6z"/>
		<path id="circle5580-1" class="st1" d="M12.6,1031.4c-1.5,0-2.7,1.2-2.7,2.7v1.8c0,1,0.8,1.8,1.8,1.8c1,0,1.8-0.8,1.8-1.8
			c0-1-0.8-1.8-1.8-1.8c0-0.5,0.4-0.9,0.9-0.9V1031.4z M17,1031.4c-1.5,0-2.7,1.2-2.7,2.7v1.8c0,1,0.8,1.8,1.8,1.8
			c1,0,1.8-0.8,1.8-1.8c0-1-0.8-1.8-1.8-1.8c0-0.5,0.4-0.9,0.9-0.9L17,1031.4z M19.7,1037.6c-1,0-1.8,0.8-1.8,1.8
			c0,1,0.8,1.8,1.8,1.8c0,0.5-0.4,0.9-0.9,0.9v1.8c1.5,0,2.7-1.2,2.7-2.7v-1.8C21.5,1038.4,20.7,1037.6,19.7,1037.6z M24.1,1037.6
			c-1,0-1.8,0.8-1.8,1.8c0,1,0.8,1.8,1.8,1.8c0,0.5-0.4,0.9-0.9,0.9v1.8c1.5,0,2.7-1.2,2.7-2.7v-1.8
			C25.9,1038.4,25.1,1037.6,24.1,1037.6z"/>
	</g>
</g>
</svg>
