<?xml version="1.0" ?><!DOCTYPE svg  PUBLIC '-//W3C//DTD SVG 1.1//EN'  'http://www.w3.org/Graphics/SVG/1.1/DTD/svg11.dtd'><svg height="100%" style="shape-rendering:geometricPrecision; text-rendering:geometricPrecision; image-rendering:optimizeQuality; fill-rule:evenodd; clip-rule:evenodd" viewBox="0 0 127000 127000" width="100%" xml:space="preserve" xmlns="http://www.w3.org/2000/svg" xmlns:xlink="http://www.w3.org/1999/xlink"><defs><style type="text/css">
   <![CDATA[
    .fil0 {fill:none}
    .fil2 {fill:black}
    .fil1 {fill:black;fill-rule:nonzero}
   ]]>
  </style></defs><g id="图层_x0020_1"><rect class="fil0" height="127001" width="127001" x="-0.58247" y="-0.58247"/><g id="_83859256"><path class="fil1" d="M63500 23708c10985,0 20934,4455 28136,11656 7201,7202 11656,17151 11656,28136 0,10985 -4455,20934 -11656,28136 -7202,7201 -17151,11656 -28136,11656 -10985,0 -20934,-4455 -28136,-11656 -7201,-7202 -11656,-17151 -11656,-28136 0,-10985 4455,-20934 11656,-28136 7202,-7201 17151,-11656 28136,-11656zm16164 23628c-4137,-4136 -9853,-6696 -16164,-6696 -6311,0 -12027,2560 -16164,6696 -4136,4137 -6696,9853 -6696,16164 0,6311 2560,12027 6696,16164 4137,4136 9853,6696 16164,6696 6311,0 12027,-2560 16164,-6696 4136,-4137 6696,-9853 6696,-16164 0,-6311 -2560,-12027 -6696,-16164z" id="_104911040"/><path class="fil2" d="M60717 9317l5566 0c1792,0 3296,1238 3643,2996l3177 16156c222,1127 -45,2188 -775,3076 -729,887 -1718,1354 -2867,1354l-11922 0c-1149,0 -2138,-467 -2867,-1355 -729,-887 -997,-1948 -775,-3075l3177 -16156c347,-1758 1851,-2996 3643,-2996z" id="_104334816"/><path class="fil2" d="M23051 27408l3936 -3936c1267,-1267 3206,-1455 4694,-457l13671 9177c954,640 1515,1579 1627,2723 112,1143 -257,2173 -1070,2985l-8430 8430c-812,813 -1842,1182 -2986,1069 -1142,-111 -2081,-672 -2722,-1626l-9177 -13671c-998,-1488 -810,-3427 457,-4694z" id="_104334960"/><path class="fil2" d="M9210 66834l0 -5566c0,-1792 1238,-3296 2996,-3643l16156 -3177c1127,-222 2188,45 3076,775 887,729 1354,1718 1354,2867l0 11922c0,1149 -467,2138 -1355,2867 -887,729 -1948,997 -3075,775l-16156 -3177c-1758,-347 -2996,-1851 -2996,-3643z" id="_104333304"/><path class="fil2" d="M27301 104500l-3936 -3936c-1267,-1267 -1455,-3206 -457,-4694l9177 -13671c640,-954 1579,-1515 2723,-1627 1143,-112 2173,257 2985,1070l8430 8430c813,812 1182,1842 1069,2986 -111,1142 -672,2081 -1626,2722l-13671 9177c-1488,998 -3427,810 -4694,-457z" id="_83860960"/><path class="fil2" d="M66727 118341l-5566 0c-1792,0 -3296,-1238 -3643,-2996l-3177 -16156c-222,-1127 45,-2188 775,-3076 729,-887 1718,-1354 2867,-1354l11922 0c1149,0 2138,467 2867,1355 729,887 997,1948 775,3075l-3177 16156c-347,1758 -1851,2996 -3643,2996z" id="_104333376"/><path class="fil2" d="M104393 100250l-3936 3936c-1267,1267 -3206,1455 -4694,457l-13671 -9177c-954,-640 -1515,-1579 -1627,-2723 -112,-1143 257,-2173 1070,-2985l8430 -8430c812,-813 1842,-1182 2986,-1069 1142,111 2081,672 2722,1626l9177 13671c998,1488 810,3427 -457,4694z" id="_104911160"/><path class="fil2" d="M118234 60824l0 5566c0,1792 -1238,3296 -2996,3643l-16156 3177c-1127,222 -2188,-45 -3076,-775 -887,-729 -1354,-1718 -1354,-2867l0 -11922c0,-1149 467,-2138 1355,-2867 887,-729 1948,-997 3075,-775l16156 3177c1758,347 2996,1851 2996,3643z" id="_101626616"/><path class="fil2" d="M100143 23158l3936 3936c1267,1267 1455,3206 457,4694l-9177 13671c-640,954 -1579,1515 -2723,1627 -1143,112 -2173,-257 -2985,-1070l-8430 -8430c-813,-812 -1182,-1842 -1069,-2986 111,-1142 672,-2081 1626,-2722l13671 -9177c1488,-998 3427,-810 4694,457z" id="_83858944"/></g></g></svg>