<?xml version="1.0" encoding="utf-8"?>
<!-- Generator: Adobe Illustrator 21.1.0, SVG Export Plug-In . SVG Version: 6.00 Build 0)  -->
<svg version="1.1" id="Layer_1" xmlns="http://www.w3.org/2000/svg" xmlns:xlink="http://www.w3.org/1999/xlink" x="0px" y="0px"
	 viewBox="0 0 122.5 128" style="enable-background:new 0 0 122.5 128;" xml:space="preserve">
<style type="text/css">
	.st0{fill:#09815A;}
	.st1{fill:#333333;fill-opacity:0.102;}
	.st2{fill:#FFFFFF;}
</style>
<title></title>
<g>
	<path class="st0" d="M20.9,112.1c1,2.5,3.4,4.2,6.1,4.7c5.8,1.1,8.8-3.1,16.8-0.9c6.4,1.8,7.8,5.1,10.7,8.4
		c1.2,1.3,1.9,1.9,2.4,2.3c0.7,0.5,1.4,0.9,2.2,1.2c0.6,0.2,1.2,0.4,2.1,0.4c1,0,1.5-0.2,2.1-0.4c1.1-0.4,2-0.9,2.9-1.7l1.4-1.3
		c0.2-0.2,0.4-0.4,0.7-0.7c2.7-3.2,4.2-6.3,10.4-8c8.1-2.3,11.5,2.2,17.3,0.9c2.2-0.5,4.2-1.9,5.2-3.9c2.5-4.9-1.3-9.6,5-17.4
		c6.1-7.5,13-4.5,15.7-11.3c2.8-7-5.8-9.8-5.9-19.9c-0.2-10.4,8.6-13,6-20c-1.3-3.5-4-4.7-7.4-6c-5-1.8-8.5-4.3-10.9-9.3
		c-0.8-1.7-1.2-3.6-1.4-5.4c-0.4-4.9,0.1-12-7.6-12.6c-2.5-0.2-4,0.6-5.8,1C70.2,16.5,70.4,0,61.2,0c-3.9,0-6.2,3.1-8,5.3
		C41,20.4,30.7,6.6,23.3,12.6c-5.9,4.7,0.1,11.2-7,20c-6.1,7.6-13,4.5-15.7,11.3c-2.8,7.1,5.9,9.9,5.9,19.9c0,10.8-8.4,12.5-6,20
		c0.5,1.3,1.2,2.4,2.2,3.4c0.3,0.3,0.7,0.5,1,0.7c1.3,0.8,2.7,1.4,4.1,1.9c3.8,1.4,5.9,2.4,8.3,5.4C22.5,103.3,19,107.5,20.9,112.1z
		"/>
	<path class="st1" d="M94.2,44.2L51.8,85.6l-23.6-23l-1.3,1.2c-0.9,0.9-0.9,2.3,0,3.2c0,0,0,0,0,0l21.6,21.5l0.2,0.1
		c3,2.6,2.6,2.6,6.1-0.1l40.9-39.9C97.3,47,95.4,45.4,94.2,44.2z"/>
	<path class="st2" d="M95,44.9l-7.1-7c-0.9-0.8-2.3-0.8-3.2,0L51.6,70.4L37.4,56.5c-0.9-0.9-2.3-0.9-3.2,0l-7.1,7
		c-0.9,0.8-0.9,2.2,0,3.1c0,0,0,0,0,0l22.7,22.5c0.9,0.9,2.3,0.9,3.2,0l42.1-41C95.9,47.2,95.9,45.8,95,44.9
		C95.1,44.9,95,44.9,95,44.9z"/>
</g>
</svg>
