<?xml version="1.0" encoding="utf-8"?>
<!-- Generator: Adobe Illustrator 21.1.0, SVG Export Plug-In . SVG Version: 6.00 Build 0)  -->
<svg version="1.1" id="Layer_1" xmlns="http://www.w3.org/2000/svg" xmlns:xlink="http://www.w3.org/1999/xlink" x="0px" y="0px"
	 viewBox="0 0 550 550" style="enable-background:new 0 0 550 550;" xml:space="preserve">
<style type="text/css">
	.st0{fill:#3F65A6;}
	.st1{fill:#FFFFFF;}
</style>
<g>
	<g>
		<circle class="st0" cx="275" cy="275" r="226.5"/>
		<path id="Facebook_4_" class="st1" d="M240.6,200.5c0,6.5,0,35.7,0,35.7h-26.2V280h26.2v119.8h53.8V279.9h36.1c0,0,3.4-21,5-43.9
			c-4.7,0-40.9,0-40.9,0s0-25.4,0-29.9c0-4.4,5.8-10.4,11.7-10.4c5.8,0,18,0,29.3,0c0-5.9,0-26.5,0-45.5c-15.1,0-32.3,0-39.8,0
			C239.3,150.2,240.6,194,240.6,200.5z"/>
	</g>
</g>
</svg>
