<?xml version="1.0" encoding="utf-8"?>
<!-- Generator: Adobe Illustrator 21.1.0, SVG Export Plug-In . SVG Version: 6.00 Build 0)  -->
<svg version="1.1" id="Layer_1" xmlns="http://www.w3.org/2000/svg" xmlns:xlink="http://www.w3.org/1999/xlink" x="0px" y="0px"
	 viewBox="0 0 26.3 26.3" style="enable-background:new 0 0 26.3 26.3;" xml:space="preserve">
<style type="text/css">
	.st0{fill:url(#SVGID_1_);}
	.st1{fill:#FFFFFF;stroke:#FFFFFF;stroke-width:0.25;stroke-miterlimit:10;}
</style>
<g id="Icons">
	<g id="Icons_8_">
		<g>
			
				<linearGradient id="SVGID_1_" gradientUnits="userSpaceOnUse" x1="12.8958" y1="575.6974" x2="12.8958" y2="549.4504" gradientTransform="matrix(1 0 0 1 0 -550)">
				<stop  offset="9.694000e-02" style="stop-color:#FFD879"/>
				<stop  offset="0.1539" style="stop-color:#FCCB76"/>
				<stop  offset="0.2583" style="stop-color:#F5AA6C"/>
				<stop  offset="0.3976" style="stop-color:#E9755E"/>
				<stop  offset="0.449" style="stop-color:#E45F58"/>
				<stop  offset="0.6786" style="stop-color:#D22A9C"/>
				<stop  offset="1" style="stop-color:#6968DF"/>
			</linearGradient>
			<circle class="st0" cx="12.9" cy="12.8" r="11.5"/>
			<g>
				<path class="st1" d="M12.9,16c-1.8,0-3.2-1.4-3.2-3.2s1.4-3.2,3.2-3.2c1.8,0,3.2,1.4,3.2,3.2S14.7,16,12.9,16z M12.9,10.5
					c-1.3,0-2.3,1-2.3,2.3s1,2.3,2.3,2.3c1.3,0,2.3-1,2.3-2.3S14.2,10.5,12.9,10.5z"/>
			</g>
			<circle class="st1" cx="16.5" cy="9.3" r="0.4"/>
			<g>
				<path class="st1" d="M15.6,19h-5.5c-1.9,0-3.5-1.6-3.5-3.5v-5.5c0-1.9,1.6-3.5,3.5-3.5h5.5c1.9,0,3.5,1.6,3.5,3.5v5.5
					C19.1,17.5,17.6,19,15.6,19z M10.2,7.4c-1.5,0-2.6,1.2-2.6,2.6v5.5c0,1.5,1.2,2.6,2.6,2.6h5.5c1.5,0,2.6-1.2,2.6-2.6v-5.5
					c0-1.5-1.2-2.6-2.6-2.6H10.2z"/>
			</g>
		</g>
	</g>
</g>
</svg>
