<?xml version="1.0" encoding="utf-8"?>
<!-- Generator: Adobe Illustrator 21.1.0, SVG Export Plug-In . SVG Version: 6.00 Build 0)  -->
<svg version="1.1" id="Layer_1" xmlns="http://www.w3.org/2000/svg" xmlns:xlink="http://www.w3.org/1999/xlink" x="0px" y="0px"
	 viewBox="0 0 37 37" style="enable-background:new 0 0 37 37;" xml:space="preserve">
<style type="text/css">
	.st0{fill:#0E76A8;}
	.st1{fill:#FFFFFF;}
</style>
<path class="st0" d="M18.5,2.5c8.8,0,16,7.2,16,16s-7.2,16-16,16s-16-7.2-16-16S9.7,2.5,18.5,2.5z"/>
<path class="st1" d="M11,25.5h3v-10h-3V25.5z M22.7,15.2c-1.5,0-2.8,0.5-3.7,1.7v-1.4h-3v10h3v-5.4c0-1.1,1-2.3,2.4-2.3
	S23,18.9,23,20v5.4h3v-5.7C26,15.9,24.1,15.2,22.7,15.2z M12.5,14.5c0.8,0,1.5-0.7,1.5-1.5s-0.7-1.5-1.5-1.5S11,12.2,11,13
	S11.7,14.5,12.5,14.5z"/>
</svg>
