<?xml version="1.0" encoding="utf-8"?>
<!-- Generator: Adobe Illustrator 21.1.0, SVG Export Plug-In . SVG Version: 6.00 Build 0)  -->
<svg version="1.1" id="Layer_1" xmlns="http://www.w3.org/2000/svg" xmlns:xlink="http://www.w3.org/1999/xlink" x="0px" y="0px"
	 viewBox="0 0 24 24" style="enable-background:new 0 0 24 24;" xml:space="preserve">
<style type="text/css">
	.st0{fill:#089D47;}
	.st1{fill:#FFFFFF;}
	.st2{fill:none;}
</style>
<title></title>
<g id="Layer_2">
	<g id="Layer_1-2">
		<circle class="st0" cx="12.1" cy="12" r="11"/>
		<path class="st1" d="M8.9,10.4c-0.3-0.1-0.5,0-0.6,0.3c0,0,0,0,0,0l-0.6,1.5l-0.6-1.5c-0.1-0.2-0.3-0.3-0.5-0.3
			c-0.2,0-0.4,0.1-0.5,0.3l-0.6,1.5l-0.6-1.5c-0.1-0.3-0.4-0.4-0.6-0.3c-0.3,0.1-0.4,0.4-0.3,0.6c0,0,0,0,0,0l1,2.8
			c0.1,0.3,0.4,0.4,0.6,0.3C6,14,6.1,13.9,6.2,13.8l0.6-1.5l0.6,1.5c0.1,0.3,0.4,0.4,0.6,0.3C8,14,8.2,13.9,8.2,13.8l1-2.8
			C9.3,10.8,9.2,10.5,8.9,10.4z"/>
		<path class="st1" d="M14.3,10.4c-0.3-0.1-0.5,0-0.6,0.3c0,0,0,0,0,0l-0.6,1.5l-0.6-1.5c-0.1-0.2-0.3-0.3-0.5-0.3
			c-0.2,0-0.4,0.1-0.5,0.3l-0.6,1.5l-0.6-1.5c-0.1-0.3-0.4-0.4-0.6-0.3c-0.3,0.1-0.4,0.4-0.3,0.6c0,0,0,0,0,0l1,2.8
			c0.1,0.2,0.3,0.3,0.5,0.3c0.2,0,0.4-0.1,0.5-0.3l0.6-1.5l0.6,1.5c0.1,0.2,0.3,0.3,0.5,0.3c0.2,0,0.4-0.1,0.5-0.3l1-2.8
			C14.7,10.8,14.6,10.5,14.3,10.4z"/>
		<path class="st1" d="M19.6,10.4c-0.3-0.1-0.5,0-0.6,0.3c0,0,0,0,0,0l-0.6,1.5l-0.6-1.5c-0.1-0.2-0.3-0.3-0.5-0.3
			c-0.2,0-0.4,0.1-0.5,0.3l-0.6,1.5l-0.6-1.5c-0.1-0.3-0.4-0.4-0.6-0.3c-0.3,0.1-0.4,0.4-0.3,0.6c0,0,0,0,0,0l1,2.8
			c0.1,0.2,0.3,0.3,0.5,0.3h0c0.2,0,0.4-0.1,0.5-0.3l0.6-1.5l0.6,1.5c0.1,0.2,0.3,0.3,0.5,0.3h0c0.2,0,0.4-0.1,0.5-0.3l1-2.8
			C20,10.8,19.9,10.5,19.6,10.4C19.6,10.4,19.6,10.4,19.6,10.4z"/>
		<rect class="st2" width="24" height="24"/>
	</g>
</g>
</svg>
